<svg width="193" height="135" viewBox="0 0 193 135" fill="none" xmlns="http://www.w3.org/2000/svg">
<path d="M191.887 19.04V115.72C191.887 125.64 168.507 133.72 139.667 133.72C110.827 133.72 87.4574 125.72 87.4574 115.72V19.04H191.887Z" fill="#68E1FD"/>
<path d="M139.667 134.68C109.827 134.68 86.4574 126.35 86.4574 115.68V19.04C86.4574 18.7748 86.5628 18.5204 86.7503 18.3329C86.9379 18.1453 87.1922 18.04 87.4574 18.04H191.887C192.153 18.04 192.407 18.1453 192.595 18.3329C192.782 18.5204 192.887 18.7748 192.887 19.04V115.72C192.887 126.38 169.517 134.68 139.667 134.68ZM88.4474 20.04V115.72C88.4474 124.91 111.897 132.72 139.657 132.72C167.417 132.72 190.877 124.95 190.877 115.72V20.04H88.4474Z" fill="#093F68"/>
<path d="M139.667 37C168.508 37 191.887 28.9591 191.887 19.04C191.887 9.12099 168.508 1.08002 139.667 1.08002C110.827 1.08002 87.4474 9.12099 87.4474 19.04C87.4474 28.9591 110.827 37 139.667 37Z" fill="#F7F7F7"/>
<path d="M139.667 38C109.827 38 86.4574 29.67 86.4574 19C86.4574 8.33 109.827 0 139.667 0C169.507 0 192.887 8.33 192.887 19C192.887 29.67 169.517 38 139.667 38ZM139.667 2.07999C111.907 2.07999 88.4574 9.84999 88.4574 19.08C88.4574 28.31 111.907 36.08 139.667 36.08C167.427 36.08 190.887 28.32 190.887 19.08C190.887 9.83999 167.447 2.07999 139.667 2.07999Z" fill="#093F68"/>
<path d="M87.4474 48.97C87.4474 58.88 110.827 66.92 139.657 66.92C168.487 66.92 191.877 58.92 191.877 48.97" fill="#68E1FD"/>
<path d="M139.667 67.92C109.827 67.92 86.4574 59.6 86.4574 48.92C86.4574 48.6548 86.5628 48.4004 86.7503 48.2129C86.9379 48.0253 87.1922 47.92 87.4574 47.92C87.7226 47.92 87.977 48.0253 88.1645 48.2129C88.3521 48.4004 88.4574 48.6548 88.4574 48.92C88.4574 58.12 111.907 65.92 139.667 65.92C167.427 65.92 190.887 58.16 190.887 48.92C190.887 48.6548 190.993 48.4004 191.18 48.2129C191.368 48.0253 191.622 47.92 191.887 47.92C192.153 47.92 192.407 48.0253 192.595 48.2129C192.782 48.4004 192.887 48.6548 192.887 48.92C192.887 59.6 169.517 67.92 139.667 67.92Z" fill="#093F68"/>
<path d="M87.4474 82.21C87.4474 92.12 110.827 100.16 139.657 100.16C168.487 100.16 191.877 92.16 191.877 82.21" fill="#68E1FD"/>
<path d="M139.667 101.17C109.827 101.17 86.4574 92.84 86.4574 82.17C86.4574 81.9048 86.5628 81.6504 86.7503 81.4629C86.9379 81.2753 87.1922 81.17 87.4574 81.17C87.7226 81.17 87.977 81.2753 88.1645 81.4629C88.3521 81.6504 88.4574 81.9048 88.4574 82.17C88.4574 91.36 111.907 99.17 139.667 99.17C167.427 99.17 190.887 91.4 190.887 82.17C190.887 81.9048 190.993 81.6504 191.18 81.4629C191.368 81.2753 191.622 81.17 191.887 81.17C192.153 81.17 192.407 81.2753 192.595 81.4629C192.782 81.6504 192.887 81.9048 192.887 82.17C192.887 92.84 169.517 101.17 139.667 101.17Z" fill="#093F68"/>
<path d="M152.057 54.13C154.167 54.13 155.877 52.4197 155.877 50.31C155.877 48.2003 154.167 46.49 152.057 46.49C149.948 46.49 148.237 48.2003 148.237 50.31C148.237 52.4197 149.948 54.13 152.057 54.13Z" fill="#F56132"/>
<path d="M152.057 55.12C151.103 55.122 150.17 54.8407 149.376 54.3118C148.582 53.783 147.962 53.0303 147.596 52.1491C147.23 51.268 147.134 50.298 147.32 49.3621C147.505 48.4262 147.964 47.5664 148.639 46.8917C149.314 46.217 150.174 45.7578 151.11 45.5721C152.045 45.3864 153.015 45.4827 153.897 45.8488C154.778 46.2149 155.53 46.8342 156.059 47.6284C156.588 48.4225 156.869 49.3558 156.867 50.31C156.865 51.5848 156.357 52.8068 155.456 53.7082C154.554 54.6097 153.332 55.1173 152.057 55.12V55.12ZM152.057 47.49C151.499 47.488 150.953 47.6517 150.488 47.9604C150.023 48.269 149.66 48.7087 149.445 49.2239C149.23 49.739 149.173 50.3063 149.28 50.854C149.388 51.4017 149.656 51.9051 150.05 52.3004C150.444 52.6958 150.946 52.9654 151.494 53.075C152.041 53.1846 152.608 53.1294 153.124 52.9163C153.64 52.7031 154.081 52.3417 154.391 51.8777C154.702 51.4138 154.867 50.8681 154.867 50.31C154.865 49.5646 154.568 48.8503 154.042 48.3223C153.516 47.7943 152.803 47.4952 152.057 47.49V47.49Z" fill="#093F68"/>
<path d="M139.667 54.13C141.777 54.13 143.487 52.4197 143.487 50.31C143.487 48.2003 141.777 46.49 139.667 46.49C137.558 46.49 135.847 48.2003 135.847 50.31C135.847 52.4197 137.558 54.13 139.667 54.13Z" fill="#FFBC0E"/>
<path d="M139.667 55.12C138.714 55.12 137.781 54.837 136.989 54.307C136.196 53.7769 135.578 53.0235 135.213 52.1422C134.849 51.2609 134.754 50.2912 134.941 49.356C135.128 48.4207 135.588 47.5619 136.263 46.8882C136.938 46.2145 137.798 45.7562 138.733 45.5714C139.669 45.3865 140.638 45.4834 141.519 45.8498C142.399 46.2161 143.152 46.8355 143.68 47.6294C144.208 48.4234 144.489 49.3562 144.487 50.31C144.485 51.5866 143.976 52.81 143.072 53.7118C142.169 54.6135 140.944 55.12 139.667 55.12V55.12ZM139.667 47.49C139.11 47.49 138.564 47.6554 138.101 47.9652C137.637 48.2751 137.276 48.7155 137.062 49.2308C136.849 49.7461 136.793 50.3131 136.902 50.8601C137.01 51.4072 137.279 51.9096 137.673 52.304C138.068 52.6984 138.57 52.967 139.117 53.0758C139.664 53.1846 140.231 53.1288 140.747 52.9153C141.262 52.7019 141.702 52.3404 142.012 51.8767C142.322 51.4129 142.487 50.8677 142.487 50.31C142.487 49.5621 142.19 48.8448 141.661 48.3159C141.133 47.7871 140.415 47.49 139.667 47.49V47.49Z" fill="#093F68"/>
<path d="M127.287 54.13C129.397 54.13 131.107 52.4197 131.107 50.31C131.107 48.2003 129.397 46.49 127.287 46.49C125.178 46.49 123.467 48.2003 123.467 50.31C123.467 52.4197 125.178 54.13 127.287 54.13Z" fill="#70CC40"/>
<path d="M127.287 55.12C126.334 55.12 125.401 54.837 124.609 54.307C123.816 53.7769 123.198 53.0235 122.833 52.1422C122.469 51.2609 122.374 50.2912 122.561 49.356C122.748 48.4207 123.208 47.5619 123.883 46.8882C124.558 46.2145 125.418 45.7562 126.353 45.5714C127.289 45.3865 128.258 45.4834 129.139 45.8498C130.019 46.2161 130.772 46.8355 131.3 47.6294C131.828 48.4234 132.109 49.3562 132.107 50.31C132.105 51.5866 131.596 52.81 130.692 53.7118C129.789 54.6135 128.564 55.12 127.287 55.12V55.12ZM127.287 47.49C126.73 47.49 126.184 47.6554 125.721 47.9652C125.257 48.2751 124.896 48.7155 124.682 49.2308C124.469 49.7461 124.413 50.3131 124.522 50.8601C124.63 51.4072 124.899 51.9096 125.293 52.304C125.688 52.6984 126.19 52.967 126.737 53.0758C127.284 53.1846 127.851 53.1288 128.367 52.9153C128.882 52.7019 129.322 52.3404 129.632 51.8767C129.942 51.4129 130.107 50.8677 130.107 50.31C130.107 49.5621 129.81 48.8448 129.281 48.3159C128.753 47.7871 128.035 47.49 127.287 47.49V47.49Z" fill="#093F68"/>
<path d="M152.057 86.03C154.167 86.03 155.877 84.3197 155.877 82.21C155.877 80.1003 154.167 78.39 152.057 78.39C149.948 78.39 148.237 80.1003 148.237 82.21C148.237 84.3197 149.948 86.03 152.057 86.03Z" fill="#F56132"/>
<path d="M152.057 87.02C151.103 87.022 150.17 86.7407 149.376 86.2119C148.582 85.683 147.962 84.9303 147.596 84.0492C147.23 83.168 147.134 82.198 147.32 81.2621C147.505 80.3262 147.964 79.4665 148.639 78.7918C149.314 78.1171 150.174 77.6578 151.11 77.4721C152.045 77.2865 153.015 77.3828 153.897 77.7488C154.778 78.1149 155.53 78.7342 156.059 79.5284C156.588 80.3226 156.869 81.2558 156.867 82.21C156.865 83.4849 156.357 84.7068 155.456 85.6083C154.554 86.5098 153.332 87.0174 152.057 87.02V87.02ZM152.057 79.39C151.499 79.388 150.953 79.5517 150.488 79.8604C150.023 80.1691 149.66 80.6088 149.445 81.1239C149.23 81.639 149.173 82.2063 149.28 82.754C149.388 83.3017 149.656 83.8051 150.05 84.2005C150.444 84.5959 150.946 84.8654 151.494 84.9751C152.041 85.0847 152.608 85.0294 153.124 84.8163C153.64 84.6031 154.081 84.2417 154.391 83.7777C154.702 83.3138 154.867 82.7682 154.867 82.21C154.869 81.8397 154.797 81.4727 154.657 81.1301C154.516 80.7874 154.309 80.4758 154.049 80.213C153.788 79.9502 153.477 79.7414 153.136 79.5985C152.794 79.4555 152.428 79.3813 152.057 79.38V79.39Z" fill="#093F68"/>
<path d="M139.667 86.03C141.777 86.03 143.487 84.3197 143.487 82.21C143.487 80.1003 141.777 78.39 139.667 78.39C137.558 78.39 135.847 80.1003 135.847 82.21C135.847 84.3197 137.558 86.03 139.667 86.03Z" fill="#FFBC0E"/>
<path d="M139.667 87.02C138.714 87.02 137.781 86.7371 136.989 86.207C136.196 85.6769 135.578 84.9235 135.213 84.0422C134.849 83.1609 134.754 82.1912 134.941 81.256C135.128 80.3207 135.588 79.4619 136.263 78.7882C136.938 78.1145 137.798 77.6563 138.733 77.4714C139.669 77.2866 140.638 77.3834 141.519 77.7498C142.399 78.1161 143.152 78.7355 143.68 79.5294C144.208 80.3234 144.489 81.2563 144.487 82.21C144.485 83.4866 143.976 84.71 143.072 85.6118C142.169 86.5136 140.944 87.02 139.667 87.02V87.02ZM139.667 79.39C139.11 79.39 138.564 79.5554 138.101 79.8653C137.637 80.1751 137.276 80.6156 137.062 81.1308C136.849 81.6461 136.793 82.2131 136.902 82.7602C137.01 83.3072 137.279 83.8097 137.673 84.204C138.068 84.5984 138.57 84.867 139.117 84.9758C139.664 85.0846 140.231 85.0288 140.747 84.8153C141.262 84.6019 141.702 84.2405 142.012 83.7767C142.322 83.313 142.487 82.7678 142.487 82.21C142.49 81.8385 142.419 81.4701 142.278 81.1262C142.138 80.7823 141.93 80.4697 141.668 80.2065C141.406 79.9434 141.094 79.7348 140.75 79.5929C140.407 79.451 140.039 79.3787 139.667 79.38V79.39Z" fill="#093F68"/>
<path d="M127.287 86.03C129.397 86.03 131.107 84.3197 131.107 82.21C131.107 80.1003 129.397 78.39 127.287 78.39C125.178 78.39 123.467 80.1003 123.467 82.21C123.467 84.3197 125.178 86.03 127.287 86.03Z" fill="#70CC40"/>
<path d="M127.287 87.02C126.334 87.02 125.401 86.7371 124.609 86.207C123.816 85.6769 123.198 84.9235 122.833 84.0422C122.469 83.1609 122.374 82.1912 122.561 81.256C122.748 80.3207 123.208 79.4619 123.883 78.7882C124.558 78.1145 125.418 77.6563 126.353 77.4714C127.289 77.2866 128.258 77.3834 129.139 77.7498C130.019 78.1161 130.772 78.7355 131.3 79.5294C131.828 80.3234 132.109 81.2563 132.107 82.21C132.105 83.4866 131.596 84.71 130.692 85.6118C129.789 86.5136 128.564 87.02 127.287 87.02V87.02ZM127.287 79.39C126.73 79.39 126.184 79.5554 125.721 79.8653C125.257 80.1751 124.896 80.6156 124.682 81.1308C124.469 81.6461 124.413 82.2131 124.522 82.7602C124.63 83.3072 124.899 83.8097 125.293 84.204C125.688 84.5984 126.19 84.867 126.737 84.9758C127.284 85.0846 127.851 85.0288 128.367 84.8153C128.882 84.6019 129.322 84.2405 129.632 83.7767C129.942 83.313 130.107 82.7678 130.107 82.21C130.11 81.8385 130.039 81.4701 129.898 81.1262C129.758 80.7823 129.55 80.4697 129.288 80.2065C129.026 79.9434 128.714 79.7348 128.37 79.5929C128.027 79.451 127.659 79.3787 127.287 79.38V79.39Z" fill="#093F68"/>
<path d="M152.057 117.92C154.167 117.92 155.877 116.21 155.877 114.1C155.877 111.99 154.167 110.28 152.057 110.28C149.948 110.28 148.237 111.99 148.237 114.1C148.237 116.21 149.948 117.92 152.057 117.92Z" fill="#F56132"/>
<path d="M152.057 118.92C151.104 118.922 150.171 118.641 149.377 118.113C148.583 117.584 147.964 116.832 147.597 115.951C147.231 115.071 147.134 114.101 147.319 113.166C147.504 112.23 147.962 111.37 148.636 110.695C149.309 110.02 150.168 109.56 151.103 109.373C152.039 109.187 153.008 109.281 153.89 109.646C154.771 110.01 155.524 110.628 156.054 111.421C156.584 112.214 156.867 113.146 156.867 114.1C156.867 115.377 156.361 116.601 155.459 117.505C154.557 118.408 153.334 118.917 152.057 118.92V118.92ZM152.057 111.29C151.499 111.288 150.952 111.452 150.487 111.761C150.022 112.07 149.659 112.511 149.444 113.026C149.229 113.542 149.173 114.11 149.281 114.658C149.39 115.206 149.658 115.709 150.053 116.104C150.448 116.499 150.952 116.768 151.5 116.876C152.048 116.985 152.616 116.928 153.131 116.713C153.647 116.499 154.087 116.136 154.396 115.67C154.705 115.205 154.869 114.659 154.867 114.1C154.865 113.356 154.568 112.642 154.041 112.116C153.515 111.59 152.802 111.293 152.057 111.29V111.29Z" fill="#093F68"/>
<path d="M139.667 117.92C141.777 117.92 143.487 116.21 143.487 114.1C143.487 111.99 141.777 110.28 139.667 110.28C137.558 110.28 135.847 111.99 135.847 114.1C135.847 116.21 137.558 117.92 139.667 117.92Z" fill="#FFBC0E"/>
<path d="M139.667 118.92C138.714 118.92 137.782 118.637 136.99 118.108C136.197 117.578 135.579 116.825 135.214 115.944C134.85 115.064 134.754 114.095 134.94 113.16C135.126 112.225 135.585 111.366 136.259 110.692C136.933 110.018 137.792 109.559 138.727 109.373C139.662 109.187 140.631 109.282 141.512 109.647C142.393 110.012 143.145 110.629 143.675 111.422C144.205 112.215 144.487 113.147 144.487 114.1C144.487 115.378 143.98 116.604 143.076 117.508C142.172 118.412 140.946 118.92 139.667 118.92V118.92ZM139.667 111.29C139.109 111.29 138.564 111.456 138.1 111.766C137.636 112.076 137.274 112.517 137.061 113.033C136.848 113.549 136.793 114.117 136.902 114.664C137.012 115.211 137.282 115.714 137.677 116.108C138.072 116.502 138.576 116.769 139.123 116.877C139.671 116.985 140.238 116.927 140.754 116.712C141.269 116.497 141.708 116.134 142.017 115.669C142.326 115.204 142.489 114.658 142.487 114.1C142.487 113.73 142.414 113.364 142.273 113.022C142.131 112.681 141.923 112.371 141.661 112.109C141.399 111.848 141.088 111.642 140.746 111.501C140.404 111.36 140.037 111.289 139.667 111.29V111.29Z" fill="#093F68"/>
<path d="M127.287 117.92C129.397 117.92 131.107 116.21 131.107 114.1C131.107 111.99 129.397 110.28 127.287 110.28C125.178 110.28 123.467 111.99 123.467 114.1C123.467 116.21 125.178 117.92 127.287 117.92Z" fill="#70CC40"/>
<path d="M127.287 118.92C126.334 118.92 125.402 118.637 124.61 118.108C123.817 117.578 123.199 116.825 122.834 115.944C122.47 115.064 122.374 114.095 122.56 113.16C122.746 112.225 123.205 111.366 123.879 110.692C124.553 110.018 125.412 109.559 126.347 109.373C127.282 109.187 128.251 109.282 129.132 109.647C130.013 110.012 130.765 110.629 131.295 111.422C131.825 112.215 132.107 113.147 132.107 114.1C132.107 115.378 131.6 116.604 130.696 117.508C129.792 118.412 128.566 118.92 127.287 118.92V118.92ZM127.287 111.29C126.729 111.29 126.184 111.456 125.72 111.766C125.256 112.076 124.894 112.517 124.681 113.033C124.468 113.549 124.413 114.117 124.522 114.664C124.632 115.211 124.902 115.714 125.297 116.108C125.692 116.502 126.196 116.769 126.743 116.877C127.291 116.985 127.858 116.927 128.374 116.712C128.889 116.497 129.328 116.134 129.637 115.669C129.946 115.204 130.109 114.658 130.107 114.1C130.107 113.73 130.034 113.364 129.893 113.022C129.751 112.681 129.543 112.371 129.281 112.109C129.019 111.848 128.708 111.642 128.366 111.501C128.024 111.36 127.657 111.289 127.287 111.29V111.29Z" fill="#093F68"/>
<path d="M78.6574 68.38H57.9274C57.6622 68.38 57.4079 68.2746 57.2203 68.0871C57.0328 67.8996 56.9274 67.6452 56.9274 67.38C56.9274 67.1148 57.0328 66.8604 57.2203 66.6729C57.4079 66.4854 57.6622 66.38 57.9274 66.38H78.6574C78.9227 66.38 79.177 66.4854 79.3645 66.6729C79.5521 66.8604 79.6574 67.1148 79.6574 67.38C79.6574 67.6452 79.5521 67.8996 79.3645 68.0871C79.177 68.2746 78.9227 68.38 78.6574 68.38V68.38Z" fill="#093F68"/>
<path d="M68.7774 118.92H57.9274C57.6622 118.92 57.4079 118.815 57.2203 118.627C57.0328 118.44 56.9274 118.185 56.9274 117.92C56.9274 117.655 57.0328 117.4 57.2203 117.213C57.4079 117.025 57.6622 116.92 57.9274 116.92H67.7774V17.84H57.9274C57.6622 17.84 57.4079 17.7346 57.2203 17.5471C57.0328 17.3595 56.9274 17.1052 56.9274 16.84C56.9274 16.5747 57.0328 16.3204 57.2203 16.1329C57.4079 15.9453 57.6622 15.84 57.9274 15.84H68.7774C69.0427 15.84 69.297 15.9453 69.4845 16.1329C69.6721 16.3204 69.7774 16.5747 69.7774 16.84V117.92C69.7774 118.185 69.6721 118.44 69.4845 118.627C69.297 118.815 69.0427 118.92 68.7774 118.92Z" fill="#093F68"/>
<path d="M47.0274 38.67H3.26742C2.66803 38.67 2.09319 38.4319 1.66936 38.0081C1.24553 37.5842 1.00742 37.0094 1.00742 36.41V10.51L11.0074 1.08002H47.0774C47.6751 1.09315 48.2432 1.34254 48.6574 1.77361C49.0716 2.20468 49.2981 2.7823 49.2874 3.38002V36.38C49.2914 36.6793 49.2359 36.9764 49.1241 37.2541C49.0123 37.5318 48.8464 37.7845 48.6362 37.9975C48.4259 38.2106 48.1754 38.3797 47.8993 38.4952C47.6231 38.6106 47.3267 38.67 47.0274 38.67V38.67Z" fill="white"/>
<path d="M47.0274 39.67H3.26742C2.40281 39.67 1.57362 39.3265 0.96225 38.7151C0.350881 38.1038 0.00741577 37.2746 0.00741577 36.41V10.51C0.00792985 10.3753 0.0356577 10.2421 0.0889282 10.1183C0.142199 9.99461 0.219919 9.88292 0.317421 9.78998L10.2674 0.379974C10.4528 0.201294 10.7 0.101001 10.9574 0.0999756H47.0274C47.4568 0.101287 47.8818 0.187169 48.278 0.352715C48.6743 0.51826 49.034 0.760228 49.3367 1.0648C49.6395 1.36938 49.8792 1.7306 50.0423 2.12784C50.2054 2.52508 50.2887 2.95055 50.2874 3.37997V36.38C50.2914 36.8106 50.21 37.2377 50.0479 37.6367C49.8859 38.0357 49.6464 38.3987 49.3433 38.7046C49.0401 39.0105 48.6794 39.2533 48.2819 39.419C47.8844 39.5847 47.4581 39.67 47.0274 39.67V39.67ZM2.02742 10.94V36.38C2.02742 36.7141 2.16017 37.0346 2.39646 37.2709C2.63276 37.5072 2.95324 37.64 3.28741 37.64H47.0474C47.3816 37.64 47.7021 37.5072 47.9384 37.2709C48.1747 37.0346 48.3074 36.7141 48.3074 36.38V3.37997C48.3074 3.0458 48.1747 2.72532 47.9384 2.48902C47.7021 2.25273 47.3816 2.11997 47.0474 2.11997H11.3574L2.02742 10.94Z" fill="#093F68"/>
<path d="M1.00742 10.51H9.81742C10.1675 10.51 10.5033 10.3709 10.7508 10.1234C10.9983 9.87585 11.1374 9.5401 11.1374 9.19002V1.08002L1.00742 10.51Z" fill="white"/>
<path d="M9.81743 11.51H1.00742C0.807132 11.5093 0.611661 11.4485 0.446335 11.3354C0.28101 11.2224 0.153449 11.0623 0.0801779 10.8759C0.00690673 10.6894 -0.00869734 10.4853 0.0353858 10.2899C0.0794689 10.0946 0.181208 9.91691 0.327424 9.78003L10.4474 0.380024C10.5904 0.248259 10.7688 0.161056 10.9606 0.129086C11.1524 0.0971157 11.3494 0.121766 11.5274 0.200024C11.7047 0.277408 11.8558 0.404568 11.9623 0.56609C12.0688 0.727611 12.1262 0.916561 12.1274 1.11003V9.22002C12.1196 9.82838 11.873 10.4093 11.441 10.8377C11.0089 11.266 10.4258 11.5074 9.81743 11.51V11.51ZM3.54743 9.51002H9.81743C9.9023 9.51002 9.98369 9.47631 10.0437 9.4163C10.1037 9.35629 10.1374 9.27489 10.1374 9.19002V3.38002L3.54743 9.51002Z" fill="#093F68"/>
<path d="M40.1674 15.64H10.1674C9.9022 15.64 9.64785 15.5347 9.46031 15.3471C9.27278 15.1596 9.16742 14.9052 9.16742 14.64C9.16742 14.3748 9.27278 14.1204 9.46031 13.9329C9.64785 13.7454 9.9022 13.64 10.1674 13.64H40.1674C40.4326 13.64 40.687 13.7454 40.8745 13.9329C41.0621 14.1204 41.1674 14.3748 41.1674 14.64C41.1674 14.9052 41.0621 15.1596 40.8745 15.3471C40.687 15.5347 40.4326 15.64 40.1674 15.64Z" fill="#DFEAEF"/>
<path d="M40.1674 22.59H10.1674C9.9022 22.59 9.64785 22.4846 9.46031 22.2971C9.27278 22.1095 9.16742 21.8552 9.16742 21.59C9.16742 21.3247 9.27278 21.0704 9.46031 20.8829C9.64785 20.6953 9.9022 20.59 10.1674 20.59H40.1674C40.4326 20.59 40.687 20.6953 40.8745 20.8829C41.0621 21.0704 41.1674 21.3247 41.1674 21.59C41.1674 21.8552 41.0621 22.1095 40.8745 22.2971C40.687 22.4846 40.4326 22.59 40.1674 22.59Z" fill="#DFEAEF"/>
<path d="M33.9674 29.53H10.1274C9.86222 29.53 9.60787 29.4247 9.42033 29.2371C9.2328 29.0496 9.12744 28.7952 9.12744 28.53C9.12744 28.2648 9.2328 28.0105 9.42033 27.8229C9.60787 27.6354 9.86222 27.53 10.1274 27.53H33.9674C34.2327 27.53 34.487 27.6354 34.6746 27.8229C34.8621 28.0105 34.9674 28.2648 34.9674 28.53C34.9674 28.7952 34.8621 29.0496 34.6746 29.2371C34.487 29.4247 34.2327 29.53 33.9674 29.53Z" fill="#DFEAEF"/>
<path d="M47.0274 86.17H3.26742C2.66803 86.17 2.09319 85.9319 1.66936 85.5081C1.24553 85.0843 1.00742 84.5094 1.00742 83.91V58.02L11.0074 48.59H47.0774C47.6768 48.59 48.2516 48.8281 48.6755 49.252C49.0993 49.6758 49.3374 50.2506 49.3374 50.85V83.91C49.3375 84.2111 49.2774 84.5091 49.1607 84.7866C49.044 85.0641 48.8731 85.3155 48.6579 85.526C48.4427 85.7365 48.1876 85.902 47.9076 86.0126C47.6276 86.1231 47.3284 86.1767 47.0274 86.17V86.17Z" fill="white"/>
<path d="M47.0274 87.17H3.26744C2.40283 87.17 1.57364 86.8265 0.962269 86.2152C0.3509 85.6038 0.00743482 84.7746 0.00743482 83.91V58.02C0.00659296 57.8836 0.0336598 57.7485 0.0869713 57.6229C0.140283 57.4974 0.218717 57.3841 0.31744 57.29L10.2674 47.86C10.4544 47.6849 10.7014 47.5883 10.9574 47.59H47.0274C47.892 47.59 48.7212 47.9334 49.3326 48.5448C49.944 49.1562 50.2874 49.9854 50.2874 50.85V83.91C50.2874 84.7746 49.944 85.6038 49.3326 86.2152C48.7212 86.8265 47.892 87.17 47.0274 87.17V87.17ZM2.02744 58.45V83.91C2.02611 84.0758 2.05778 84.2403 2.12063 84.3937C2.18348 84.5472 2.27624 84.6866 2.39351 84.8039C2.51078 84.9212 2.65021 85.0139 2.80368 85.0768C2.95716 85.1396 3.1216 85.1713 3.28743 85.17H47.0474C47.2133 85.1713 47.3777 85.1396 47.5312 85.0768C47.6847 85.0139 47.8241 84.9212 47.9414 84.8039C48.0586 84.6866 48.1514 84.5472 48.2142 84.3937C48.2771 84.2403 48.3088 84.0758 48.3074 83.91V50.85C48.3088 50.6841 48.2771 50.5197 48.2142 50.3662C48.1514 50.2128 48.0586 50.0733 47.9414 49.9561C47.8241 49.8388 47.6847 49.746 47.5312 49.6832C47.3777 49.6203 47.2133 49.5887 47.0474 49.59H11.3574L2.02744 58.45Z" fill="#093F68"/>
<path d="M1.00742 58.02H9.81742C10.1684 58.0174 10.5041 57.8761 10.7514 57.627C10.9987 57.3778 11.1374 57.041 11.1374 56.69V48.59L1.00742 58.02Z" fill="white"/>
<path d="M9.81743 59.02H1.00742C0.804948 59.0215 0.606791 58.9615 0.439154 58.8479C0.271517 58.7344 0.142304 58.5726 0.0686021 58.384C-0.00509961 58.1954 -0.0198194 57.9889 0.0263963 57.7918C0.072612 57.5946 0.177581 57.4162 0.327422 57.28L10.4474 47.86C10.5899 47.7279 10.7678 47.6401 10.9593 47.6074C11.1508 47.5748 11.3477 47.5986 11.526 47.676C11.7042 47.7535 11.856 47.8811 11.9628 48.0435C12.0696 48.2058 12.1268 48.3957 12.1274 48.59V56.69C12.1274 57.3045 11.8847 57.8941 11.4521 58.3305C11.0194 58.7669 10.4319 59.0147 9.81743 59.02ZM3.54742 57.02H9.81743C9.8603 57.02 9.90275 57.0114 9.94224 56.9947C9.98173 56.978 10.0175 56.9535 10.0473 56.9228C10.0772 56.892 10.1005 56.8555 10.116 56.8155C10.1315 56.7755 10.1388 56.7328 10.1374 56.69V50.88L3.54742 57.02Z" fill="#093F68"/>
<path d="M40.1674 63.15H10.1674C9.9022 63.15 9.64785 63.0447 9.46031 62.8571C9.27278 62.6696 9.16742 62.4152 9.16742 62.15C9.16742 61.8848 9.27278 61.6305 9.46031 61.4429C9.64785 61.2554 9.9022 61.15 10.1674 61.15H40.1674C40.4326 61.15 40.687 61.2554 40.8745 61.4429C41.0621 61.6305 41.1674 61.8848 41.1674 62.15C41.1674 62.4152 41.0621 62.6696 40.8745 62.8571C40.687 63.0447 40.4326 63.15 40.1674 63.15Z" fill="#DFEAEF"/>
<path d="M40.1674 70.09H10.1674C9.9022 70.09 9.64785 69.9847 9.46031 69.7971C9.27278 69.6096 9.16742 69.3552 9.16742 69.09C9.16742 68.8248 9.27278 68.5705 9.46031 68.3829C9.64785 68.1954 9.9022 68.09 10.1674 68.09H40.1674C40.4326 68.09 40.687 68.1954 40.8745 68.3829C41.0621 68.5705 41.1674 68.8248 41.1674 69.09C41.1674 69.3552 41.0621 69.6096 40.8745 69.7971C40.687 69.9847 40.4326 70.09 40.1674 70.09Z" fill="#DFEAEF"/>
<path d="M33.9674 77.04H10.1274C9.86222 77.04 9.60787 76.9346 9.42033 76.7471C9.2328 76.5595 9.12744 76.3052 9.12744 76.04C9.12744 75.7748 9.2328 75.5204 9.42033 75.3329C9.60787 75.1453 9.86222 75.04 10.1274 75.04H33.9674C34.2327 75.04 34.487 75.1453 34.6746 75.3329C34.8621 75.5204 34.9674 75.7748 34.9674 76.04C34.9674 76.3052 34.8621 76.5595 34.6746 76.7471C34.487 76.9346 34.2327 77.04 33.9674 77.04Z" fill="#DFEAEF"/>
<path d="M47.0274 133.68H3.26742C2.66803 133.68 2.09319 133.442 1.66936 133.018C1.24553 132.594 1.00742 132.019 1.00742 131.42V105.52L11.0074 96.09H47.0774C47.6768 96.09 48.2516 96.3281 48.6755 96.752C49.0993 97.1758 49.3374 97.7506 49.3374 98.35V131.38C49.3429 131.684 49.2868 131.987 49.1725 132.269C49.0582 132.551 48.8881 132.807 48.6724 133.022C48.4566 133.237 48.1997 133.406 47.9171 133.519C47.6344 133.632 47.3318 133.687 47.0274 133.68V133.68Z" fill="white"/>
<path d="M47.0274 134.68H3.26742C2.40362 134.677 1.57596 134.333 0.965164 133.722C0.354366 133.111 0.0100533 132.284 0.00741577 131.42V105.52C0.00792985 105.385 0.0356577 105.252 0.0889282 105.128C0.142199 105.005 0.219919 104.893 0.317421 104.8L10.2674 95.37C10.4528 95.1913 10.7 95.0911 10.9574 95.09H47.0274C47.892 95.09 48.7212 95.4335 49.3326 96.0448C49.9439 96.6562 50.2874 97.4854 50.2874 98.35V131.38C50.2914 131.811 50.21 132.239 50.0481 132.638C49.8862 133.038 49.6468 133.401 49.3439 133.708C49.0409 134.015 48.6802 134.259 48.2827 134.425C47.8851 134.592 47.4585 134.679 47.0274 134.68V134.68ZM2.02742 105.95V131.38C2.02742 131.714 2.16017 132.035 2.39646 132.271C2.63276 132.507 2.95324 132.64 3.28741 132.64H47.0474C47.3816 132.64 47.7021 132.507 47.9384 132.271C48.1747 132.035 48.3074 131.714 48.3074 131.38V98.38C48.3074 98.0458 48.1747 97.7254 47.9384 97.4891C47.7021 97.2528 47.3816 97.12 47.0474 97.12H11.3574L2.02742 105.95Z" fill="#093F68"/>
<path d="M1.00742 105.52H9.81742C10.1675 105.52 10.5033 105.381 10.7508 105.133C10.9983 104.886 11.1374 104.55 11.1374 104.2V96.09L1.00742 105.52Z" fill="white"/>
<path d="M9.81743 106.52H1.00742C0.807132 106.519 0.611661 106.458 0.446335 106.345C0.28101 106.232 0.153449 106.072 0.0801779 105.886C0.00690673 105.699 -0.00869734 105.495 0.0353858 105.3C0.0794689 105.104 0.181208 104.927 0.327424 104.79L10.4474 95.38C10.5904 95.2482 10.7688 95.161 10.9606 95.129C11.1524 95.0971 11.3494 95.1217 11.5274 95.2C11.7047 95.2774 11.8558 95.4045 11.9623 95.566C12.0688 95.7276 12.1262 95.9165 12.1274 96.11V104.22C12.1222 104.83 11.8768 105.414 11.4444 105.844C11.0121 106.275 10.4275 106.517 9.81743 106.52V106.52ZM3.54743 104.52H9.81743C9.9023 104.52 9.98369 104.486 10.0437 104.426C10.1037 104.366 10.1374 104.285 10.1374 104.2V98.38L3.54743 104.52Z" fill="#093F68"/>
<path d="M40.1674 110.65H10.1674C9.9022 110.65 9.64785 110.545 9.46031 110.357C9.27278 110.17 9.16742 109.915 9.16742 109.65C9.16742 109.385 9.27278 109.13 9.46031 108.943C9.64785 108.755 9.9022 108.65 10.1674 108.65H40.1674C40.4326 108.65 40.687 108.755 40.8745 108.943C41.0621 109.13 41.1674 109.385 41.1674 109.65C41.1674 109.915 41.0621 110.17 40.8745 110.357C40.687 110.545 40.4326 110.65 40.1674 110.65Z" fill="#DFEAEF"/>
<path d="M40.1674 117.59H10.1674C9.9022 117.59 9.64785 117.485 9.46031 117.297C9.27278 117.11 9.16742 116.855 9.16742 116.59C9.16742 116.325 9.27278 116.07 9.46031 115.883C9.64785 115.695 9.9022 115.59 10.1674 115.59H40.1674C40.4326 115.59 40.687 115.695 40.8745 115.883C41.0621 116.07 41.1674 116.325 41.1674 116.59C41.1674 116.855 41.0621 117.11 40.8745 117.297C40.687 117.485 40.4326 117.59 40.1674 117.59Z" fill="#DFEAEF"/>
<path d="M33.9674 124.54H10.1274C9.86222 124.54 9.60787 124.435 9.42033 124.247C9.2328 124.06 9.12744 123.805 9.12744 123.54C9.12744 123.275 9.2328 123.02 9.42033 122.833C9.60787 122.645 9.86222 122.54 10.1274 122.54H33.9674C34.2327 122.54 34.487 122.645 34.6746 122.833C34.8621 123.02 34.9674 123.275 34.9674 123.54C34.9674 123.805 34.8621 124.06 34.6746 124.247C34.487 124.435 34.2327 124.54 33.9674 124.54Z" fill="#DFEAEF"/>
</svg>
