<svg width="223" height="132" viewBox="0 0 223 132" fill="none" xmlns="http://www.w3.org/2000/svg">
<path d="M195.996 1H66.2961C61.5686 1 57.7361 4.83244 57.7361 9.56V92.49C57.7361 97.2176 61.5686 101.05 66.2961 101.05H195.996C200.724 101.05 204.556 97.2176 204.556 92.49V9.56C204.556 4.83244 200.724 1 195.996 1Z" fill="#68E1FD"/>
<path d="M195.986 102.05H66.3561C63.8188 102.047 61.3862 101.038 59.5921 99.2441C57.7979 97.4499 56.7888 95.0173 56.7861 92.48V9.56C56.7888 7.02361 57.7982 4.59201 59.5927 2.79945C61.3871 1.00689 63.8198 -1.38472e-06 66.3561 0H195.986C198.523 -1.38472e-06 200.955 1.00689 202.75 2.79945C204.544 4.59201 205.554 7.02361 205.556 9.56V92.48C205.554 95.0173 204.544 97.4499 202.75 99.2441C200.956 101.038 198.523 102.047 195.986 102.05V102.05ZM66.3561 2C64.351 2.00264 62.4286 2.79967 61.0098 4.21658C59.591 5.6335 58.7914 7.55486 58.7861 9.56V92.48C58.7888 94.4869 59.5872 96.4108 61.0063 97.8299C62.4253 99.249 64.3493 100.047 66.3561 100.05H195.986C197.993 100.047 199.917 99.249 201.336 97.8299C202.755 96.4108 203.554 94.4869 203.556 92.48V9.56C203.554 7.55404 202.755 5.63115 201.335 4.21366C199.916 2.79617 197.992 2 195.986 2H66.3561Z" fill="#093F68"/>
<path d="M154.606 122.56H107.686L112.586 101.05H149.706L154.606 122.56Z" fill="#68E1FD"/>
<path d="M154.606 123.56H107.686C107.536 123.559 107.388 123.525 107.253 123.459C107.118 123.393 106.999 123.298 106.906 123.18C106.814 123.063 106.749 122.927 106.716 122.781C106.683 122.636 106.683 122.485 106.716 122.34L111.606 100.83C111.657 100.604 111.784 100.403 111.967 100.261C112.149 100.119 112.375 100.044 112.606 100.05H149.726C149.957 100.044 150.183 100.119 150.366 100.261C150.548 100.403 150.675 100.604 150.726 100.83L155.616 122.34C155.649 122.485 155.649 122.636 155.616 122.781C155.583 122.927 155.518 123.063 155.426 123.18C155.329 123.303 155.204 123.402 155.062 123.468C154.919 123.534 154.763 123.565 154.606 123.56ZM108.936 121.56H153.356L148.916 102.05H113.356L108.936 121.56Z" fill="#093F68"/>
<path d="M194.546 9.33997H67.7462V83.59H194.546V9.33997Z" fill="white"/>
<path d="M194.546 84.59H67.7462C67.4809 84.59 67.2266 84.4846 67.039 84.2971C66.8515 84.1095 66.7462 83.8552 66.7462 83.59V9.33997C66.7462 9.07475 66.8515 8.8204 67.039 8.63287C67.2266 8.44533 67.4809 8.33997 67.7462 8.33997H194.546C194.811 8.33997 195.066 8.44533 195.253 8.63287C195.441 8.8204 195.546 9.07475 195.546 9.33997V83.59C195.546 83.8552 195.441 84.1095 195.253 84.2971C195.066 84.4846 194.811 84.59 194.546 84.59ZM68.7462 82.59H193.546V10.34H68.7462V82.59Z" fill="#093F68"/>
<path d="M160.356 122.56H101.926C99.706 122.56 97.9062 124.36 97.9062 126.58C97.9062 128.8 99.706 130.6 101.926 130.6H160.356C162.576 130.6 164.376 128.8 164.376 126.58C164.376 124.36 162.576 122.56 160.356 122.56Z" fill="#68E1FD"/>
<path d="M160.356 131.6H101.936C100.61 131.6 99.3383 131.073 98.4006 130.135C97.4629 129.198 96.9362 127.926 96.9362 126.6C96.9362 125.274 97.4629 124.002 98.4006 123.064C99.3383 122.127 100.61 121.6 101.936 121.6H160.356C161.682 121.6 162.954 122.127 163.892 123.064C164.829 124.002 165.356 125.274 165.356 126.6C165.356 127.926 164.829 129.198 163.892 130.135C162.954 131.073 161.682 131.6 160.356 131.6V131.6ZM101.926 123.6C101.131 123.6 100.367 123.916 99.8048 124.479C99.2422 125.041 98.9262 125.804 98.9262 126.6C98.9262 127.396 99.2422 128.159 99.8048 128.721C100.367 129.284 101.131 129.6 101.926 129.6H160.356C161.152 129.6 161.915 129.284 162.477 128.721C163.04 128.159 163.356 127.396 163.356 126.6C163.356 125.804 163.04 125.041 162.477 124.479C161.915 123.916 161.152 123.6 160.356 123.6H101.926Z" fill="#093F68"/>
<path d="M193.956 19.59H68.3561C68.0909 19.59 67.8366 19.4846 67.649 19.2971C67.4615 19.1095 67.3561 18.8552 67.3561 18.59C67.3561 18.3247 67.4615 18.0704 67.649 17.8829C67.8366 17.6953 68.0909 17.59 68.3561 17.59H193.956C194.221 17.59 194.476 17.6953 194.663 17.8829C194.851 18.0704 194.956 18.3247 194.956 18.59C194.956 18.8552 194.851 19.1095 194.663 19.2971C194.476 19.4846 194.221 19.59 193.956 19.59Z" fill="#093F68"/>
<path d="M74.5962 15.99C75.6731 15.99 76.5462 15.1169 76.5462 14.04C76.5462 12.963 75.6731 12.09 74.5962 12.09C73.5192 12.09 72.6461 12.963 72.6461 14.04C72.6461 15.1169 73.5192 15.99 74.5962 15.99Z" fill="#FFBC0E"/>
<path d="M82.1561 15.99C83.2331 15.99 84.1061 15.1169 84.1061 14.04C84.1061 12.963 83.2331 12.09 82.1561 12.09C81.0792 12.09 80.2061 12.963 80.2061 14.04C80.2061 15.1169 81.0792 15.99 82.1561 15.99Z" fill="#093F68"/>
<path d="M89.7161 15.99C90.7931 15.99 91.6661 15.1169 91.6661 14.04C91.6661 12.963 90.7931 12.09 89.7161 12.09C88.6392 12.09 87.7661 12.963 87.7661 14.04C87.7661 15.1169 88.6392 15.99 89.7161 15.99Z" fill="#093F68"/>
<path d="M136.236 24.61H82.1562V46.47H136.236V24.61Z" fill="#FFBC0E"/>
<path d="M136.236 47.46H82.1562C81.8909 47.46 81.6366 47.3546 81.4491 47.1671C81.2615 46.9796 81.1562 46.7252 81.1562 46.46V24.61C81.1562 24.3448 81.2615 24.0904 81.4491 23.9029C81.6366 23.7153 81.8909 23.61 82.1562 23.61H136.236C136.501 23.61 136.756 23.7153 136.943 23.9029C137.131 24.0904 137.236 24.3448 137.236 24.61V46.46C137.236 46.7252 137.131 46.9796 136.943 47.1671C136.756 47.3546 136.501 47.46 136.236 47.46ZM83.1562 45.46H135.236V25.61H83.1562V45.46Z" fill="#093F68"/>
<path d="M82.1562 47.46C82.0092 47.4602 81.8641 47.4281 81.731 47.3659C81.5979 47.3037 81.4802 47.2129 81.3862 47.1C81.3025 46.9983 81.2398 46.8811 81.2015 46.7552C81.1633 46.6292 81.1503 46.4969 81.1633 46.3659C81.1763 46.2349 81.2151 46.1078 81.2774 45.9918C81.3396 45.8758 81.4242 45.7732 81.5262 45.69L99.2761 31.1C99.4551 30.9529 99.6795 30.8725 99.9111 30.8725C100.143 30.8725 100.367 30.9529 100.546 31.1L114.666 42.86C114.767 42.944 114.851 43.0472 114.912 43.1635C114.973 43.2799 115.011 43.4071 115.023 43.5381C115.035 43.669 115.021 43.801 114.982 43.9266C114.944 44.0522 114.88 44.1689 114.796 44.27C114.712 44.3711 114.609 44.4547 114.493 44.5159C114.376 44.5772 114.249 44.6149 114.118 44.627C113.987 44.6391 113.855 44.6252 113.73 44.5863C113.604 44.5473 113.487 44.484 113.386 44.4L99.9062 33.16L82.7861 47.25C82.6062 47.3897 82.3839 47.4638 82.1562 47.46V47.46Z" fill="#093F68"/>
<path d="M136.236 47.46C136.012 47.4579 135.795 47.3843 135.616 47.25L119.616 34.57L111.486 41.74C111.285 41.9016 111.03 41.9796 110.773 41.9576C110.517 41.9355 110.278 41.8153 110.108 41.6218C109.938 41.4284 109.849 41.1767 109.86 40.9193C109.871 40.6618 109.98 40.4185 110.166 40.24L118.916 32.51C119.096 32.3603 119.322 32.2784 119.556 32.2784C119.79 32.2784 120.016 32.3603 120.196 32.51L136.846 45.71C137.008 45.8398 137.125 46.0168 137.182 46.2163C137.239 46.4158 137.232 46.6281 137.163 46.8237C137.094 47.0192 136.966 47.1884 136.796 47.3078C136.626 47.4272 136.424 47.4909 136.216 47.49L136.236 47.46Z" fill="#093F68"/>
<path d="M177.716 26.6H146.716C146.451 26.6 146.197 26.4946 146.009 26.3071C145.822 26.1195 145.716 25.8652 145.716 25.6C145.716 25.3348 145.822 25.0804 146.009 24.8929C146.197 24.7053 146.451 24.6 146.716 24.6H177.716C177.981 24.6 178.236 24.7053 178.423 24.8929C178.611 25.0804 178.716 25.3348 178.716 25.6C178.716 25.8652 178.611 26.1195 178.423 26.3071C178.236 26.4946 177.981 26.6 177.716 26.6Z" fill="#DFEAEF"/>
<path d="M177.716 35.44H146.716C146.451 35.44 146.197 35.3346 146.009 35.1471C145.822 34.9596 145.716 34.7052 145.716 34.44C145.716 34.1748 145.822 33.9204 146.009 33.7329C146.197 33.5454 146.451 33.44 146.716 33.44H177.716C177.981 33.44 178.236 33.5454 178.423 33.7329C178.611 33.9204 178.716 34.1748 178.716 34.44C178.716 34.7052 178.611 34.9596 178.423 35.1471C178.236 35.3346 177.981 35.44 177.716 35.44Z" fill="#DFEAEF"/>
<path d="M171.126 44.25H146.696C146.431 44.25 146.177 44.1446 145.989 43.9571C145.801 43.7696 145.696 43.5152 145.696 43.25C145.696 42.9848 145.801 42.7304 145.989 42.5429C146.177 42.3554 146.431 42.25 146.696 42.25H171.126C171.391 42.25 171.646 42.3554 171.833 42.5429C172.021 42.7304 172.126 42.9848 172.126 43.25C172.126 43.5152 172.021 43.7696 171.833 43.9571C171.646 44.1446 171.391 44.25 171.126 44.25Z" fill="#DFEAEF"/>
<path d="M105.216 53.74H82.1562V69.95H105.216V53.74Z" fill="#70CC40"/>
<path d="M105.216 70.95H82.1562C81.8909 70.95 81.6366 70.8446 81.4491 70.6571C81.2615 70.4696 81.1562 70.2152 81.1562 69.95V53.74C81.1562 53.4748 81.2615 53.2204 81.4491 53.0329C81.6366 52.8453 81.8909 52.74 82.1562 52.74H105.216C105.481 52.74 105.736 52.8453 105.923 53.0329C106.111 53.2204 106.216 53.4748 106.216 53.74V69.95C106.216 70.2152 106.111 70.4696 105.923 70.6571C105.736 70.8446 105.481 70.95 105.216 70.95ZM83.1562 68.95H104.216V54.74H83.1562V68.95Z" fill="#093F68"/>
<path d="M142.336 53.74H119.276V69.95H142.336V53.74Z" fill="#70CC40"/>
<path d="M142.356 70.95H119.276C119.011 70.95 118.757 70.8446 118.569 70.6571C118.382 70.4696 118.276 70.2152 118.276 69.95V53.74C118.276 53.4748 118.382 53.2204 118.569 53.0329C118.757 52.8453 119.011 52.74 119.276 52.74H142.356C142.621 52.74 142.876 52.8453 143.063 53.0329C143.251 53.2204 143.356 53.4748 143.356 53.74V69.95C143.356 70.2152 143.251 70.4696 143.063 70.6571C142.876 70.8446 142.621 70.95 142.356 70.95ZM120.296 68.95H141.356V54.74H120.276L120.296 68.95Z" fill="#093F68"/>
<path d="M179.456 53.74H156.396V69.95H179.456V53.74Z" fill="#70CC40"/>
<path d="M179.456 70.95H156.356C156.091 70.95 155.837 70.8446 155.649 70.6571C155.461 70.4696 155.356 70.2152 155.356 69.95V53.74C155.356 53.4748 155.461 53.2204 155.649 53.0329C155.837 52.8453 156.091 52.74 156.356 52.74H179.456C179.721 52.74 179.976 52.8453 180.163 53.0329C180.351 53.2204 180.456 53.4748 180.456 53.74V69.95C180.456 70.2152 180.351 70.4696 180.163 70.6571C179.976 70.8446 179.721 70.95 179.456 70.95ZM157.396 68.95H178.456V54.74H157.356L157.396 68.95Z" fill="#093F68"/>
<path d="M98.6561 78.52H88.7261C88.4609 78.52 88.2066 78.4147 88.019 78.2271C87.8315 78.0396 87.7261 77.7852 87.7261 77.52C87.7261 77.2548 87.8315 77.0004 88.019 76.8129C88.2066 76.6254 88.4609 76.52 88.7261 76.52H98.6561C98.9214 76.52 99.1757 76.6254 99.3633 76.8129C99.5508 77.0004 99.6561 77.2548 99.6561 77.52C99.6561 77.7852 99.5508 78.0396 99.3633 78.2271C99.1757 78.4147 98.9214 78.52 98.6561 78.52Z" fill="#DFEAEF"/>
<path d="M135.776 78.52H125.836C125.571 78.52 125.317 78.4147 125.129 78.2271C124.942 78.0396 124.836 77.7852 124.836 77.52C124.836 77.2548 124.942 77.0004 125.129 76.8129C125.317 76.6254 125.571 76.52 125.836 76.52H135.776C136.041 76.52 136.296 76.6254 136.483 76.8129C136.671 77.0004 136.776 77.2548 136.776 77.52C136.776 77.7852 136.671 78.0396 136.483 78.2271C136.296 78.4147 136.041 78.52 135.776 78.52Z" fill="#DFEAEF"/>
<path d="M172.896 78.52H162.956C162.691 78.52 162.437 78.4147 162.249 78.2271C162.062 78.0396 161.956 77.7852 161.956 77.52C161.956 77.2548 162.062 77.0004 162.249 76.8129C162.437 76.6254 162.691 76.52 162.956 76.52H172.896C173.161 76.52 173.416 76.6254 173.603 76.8129C173.791 77.0004 173.896 77.2548 173.896 77.52C173.896 77.7852 173.791 78.0396 173.603 78.2271C173.416 78.4147 173.161 78.52 172.896 78.52Z" fill="#DFEAEF"/>
<path d="M68.2161 28.74H13.1661C10.2225 28.74 7.83615 31.1263 7.83615 34.07V125.29C7.83615 128.234 10.2225 130.62 13.1661 130.62H68.2161C71.1598 130.62 73.5462 128.234 73.5462 125.29V34.07C73.5462 31.1263 71.1598 28.74 68.2161 28.74Z" fill="#68E1FD"/>
<path d="M68.2061 131.62H13.2061C12.368 131.624 11.5374 131.462 10.7623 131.143C9.98706 130.825 9.28261 130.356 8.68951 129.764C8.09641 129.172 7.6264 128.468 7.30659 127.693C6.98678 126.918 6.82349 126.088 6.82614 125.25V34.07C6.83143 32.3911 7.50141 30.7826 8.68953 29.5963C9.87765 28.4101 11.4872 27.7426 13.1661 27.74H68.1661C69.8459 27.74 71.457 28.4066 72.6457 29.5934C73.8344 30.7802 74.5035 32.3903 74.5061 34.07V125.25C74.5141 126.93 73.8552 128.544 72.674 129.738C71.4928 130.933 69.8859 131.609 68.2061 131.62V131.62ZM13.2061 29.74C12.0568 29.74 10.9544 30.1959 10.1408 31.0076C9.3272 31.8194 8.86879 32.9207 8.86614 34.07V125.25C8.87142 126.398 9.33068 127.498 10.1437 128.309C10.9568 129.121 12.0576 129.577 13.2061 129.58H68.2061C69.3546 129.577 70.4555 129.121 71.2686 128.309C72.0816 127.498 72.5409 126.398 72.5461 125.25V34.07C72.5435 32.9207 72.0851 31.8194 71.2715 31.0076C70.4578 30.1959 69.3555 29.74 68.2061 29.74H13.2061Z" fill="#093F68"/>
<path d="M65.4462 42.26H15.9362C14.5223 42.26 13.3762 43.4062 13.3762 44.82V112.9C13.3762 114.314 14.5223 115.46 15.9362 115.46H65.4462C66.86 115.46 68.0062 114.314 68.0062 112.9V44.82C68.0062 43.4062 66.86 42.26 65.4462 42.26Z" fill="white"/>
<path d="M65.4362 116.46H15.9362C14.992 116.46 14.0865 116.085 13.4189 115.417C12.7512 114.75 12.3762 113.844 12.3762 112.9V44.82C12.3762 43.8758 12.7512 42.9703 13.4189 42.3027C14.0865 41.6351 14.992 41.26 15.9362 41.26H65.4362C66.3813 41.26 67.2878 41.6348 67.957 42.3021C68.6262 42.9694 69.0035 43.8749 69.0062 44.82V112.9C69.0062 113.368 68.9137 113.832 68.7342 114.265C68.5547 114.697 68.2916 115.09 67.9599 115.421C67.6283 115.752 67.2347 116.014 66.8016 116.192C66.3685 116.37 65.9045 116.461 65.4362 116.46V116.46ZM15.9362 43.25C15.5224 43.25 15.1256 43.4144 14.8331 43.7069C14.5405 43.9995 14.3762 44.3963 14.3762 44.81V112.89C14.3762 113.304 14.5405 113.701 14.8331 113.993C15.1256 114.286 15.5224 114.45 15.9362 114.45H65.4362C65.6419 114.451 65.8458 114.412 66.0362 114.334C66.2266 114.256 66.3998 114.142 66.5457 113.997C66.6916 113.852 66.8074 113.679 66.8865 113.489C66.9655 113.299 67.0062 113.096 67.0062 112.89V44.82C67.0062 44.6143 66.9655 44.4106 66.8865 44.2207C66.8074 44.0308 66.6916 43.8584 66.5457 43.7134C66.3998 43.5684 66.2266 43.4537 66.0362 43.3759C65.8458 43.2981 65.6419 43.2587 65.4362 43.26L15.9362 43.25Z" fill="#093F68"/>
<path d="M32.2061 35.27C32.6811 35.27 33.0661 34.885 33.0661 34.41C33.0661 33.935 32.6811 33.55 32.2061 33.55C31.7312 33.55 31.3461 33.935 31.3461 34.41C31.3461 34.885 31.7312 35.27 32.2061 35.27Z" fill="#093F68"/>
<path d="M50.0261 35.41H36.3561C36.0909 35.41 35.8366 35.3047 35.649 35.1171C35.4615 34.9296 35.3561 34.6753 35.3561 34.41C35.3561 34.1448 35.4615 33.8905 35.649 33.7029C35.8366 33.5154 36.0909 33.41 36.3561 33.41H50.0761C50.3414 33.41 50.5957 33.5154 50.7832 33.7029C50.9708 33.8905 51.0761 34.1448 51.0761 34.41C51.0761 34.6753 50.9708 34.9296 50.7832 35.1171C50.5957 35.3047 50.3414 35.41 50.0761 35.41H50.0261Z" fill="#093F68"/>
<path d="M40.6861 127.94C42.6799 127.94 44.2961 126.324 44.2961 124.33C44.2961 122.336 42.6799 120.72 40.6861 120.72C38.6924 120.72 37.0761 122.336 37.0761 124.33C37.0761 126.324 38.6924 127.94 40.6861 127.94Z" fill="#093F68"/>
<path d="M61.4662 50.13H19.9962V76.27H61.4662V50.13Z" fill="#F56132"/>
<path d="M61.4762 77.25H19.9962C19.7309 77.25 19.4766 77.1446 19.289 76.9571C19.1015 76.7696 18.9962 76.5152 18.9962 76.25V50.13C18.9962 49.8648 19.1015 49.6104 19.289 49.4229C19.4766 49.2354 19.7309 49.13 19.9962 49.13H61.4762C61.7414 49.13 61.9957 49.2354 62.1833 49.4229C62.3708 49.6104 62.4762 49.8648 62.4762 50.13V76.25C62.4762 76.5152 62.3708 76.7696 62.1833 76.9571C61.9957 77.1446 61.7414 77.25 61.4762 77.25ZM20.9962 75.25H60.4762V51.13H20.9962V75.25Z" fill="#093F68"/>
<path d="M57.1161 99.62H24.3462C21.9437 99.62 19.9962 101.568 19.9962 103.97C19.9962 106.372 21.9437 108.32 24.3462 108.32H57.1161C59.5186 108.32 61.4662 106.372 61.4662 103.97C61.4662 101.568 59.5186 99.62 57.1161 99.62Z" fill="#70CC40"/>
<path d="M57.1161 109.33H24.3561C22.9759 109.27 21.6721 108.68 20.7165 107.682C19.761 106.685 19.2276 105.356 19.2276 103.975C19.2276 102.594 19.761 101.265 20.7165 100.268C21.6721 99.2699 22.9759 98.6796 24.3561 98.62H57.1261C57.8488 98.5888 58.5704 98.7041 59.2473 98.9592C59.9242 99.2142 60.5425 99.6036 61.065 100.104C61.5874 100.604 62.0031 101.205 62.2872 101.87C62.5712 102.536 62.7176 103.252 62.7176 103.975C62.7176 104.698 62.5712 105.414 62.2872 106.08C62.0031 106.745 61.5874 107.346 61.065 107.846C60.5425 108.346 59.9242 108.736 59.2473 108.991C58.5704 109.246 57.8488 109.361 57.1261 109.33H57.1161ZM24.3561 100.62C23.498 100.667 22.6905 101.041 22.0996 101.665C21.5087 102.289 21.1794 103.116 21.1794 103.975C21.1794 104.834 21.5087 105.661 22.0996 106.285C22.6905 106.909 23.498 107.283 24.3561 107.33H57.1261C57.5821 107.355 58.0384 107.287 58.4671 107.129C58.8958 106.972 59.288 106.729 59.6196 106.415C59.9512 106.101 60.2153 105.723 60.3958 105.303C60.5763 104.884 60.6694 104.432 60.6694 103.975C60.6694 103.518 60.5763 103.066 60.3958 102.647C60.2153 102.227 59.9512 101.849 59.6196 101.535C59.288 101.221 58.8958 100.978 58.4671 100.821C58.0384 100.663 57.5821 100.595 57.1261 100.62H24.3561Z" fill="#093F68"/>
<path d="M61.4762 84.58H19.9962C19.7309 84.58 19.4766 84.4747 19.289 84.2871C19.1015 84.0996 18.9962 83.8452 18.9962 83.58C18.9962 83.3148 19.1015 83.0604 19.289 82.8729C19.4766 82.6854 19.7309 82.58 19.9962 82.58H61.4762C61.7414 82.58 61.9957 82.6854 62.1833 82.8729C62.3708 83.0604 62.4762 83.3148 62.4762 83.58C62.4762 83.8452 62.3708 84.0996 62.1833 84.2871C61.9957 84.4747 61.7414 84.58 61.4762 84.58Z" fill="#DFEAEF"/>
<path d="M52.1461 92.6H19.9962C19.7309 92.6 19.4766 92.4946 19.289 92.3071C19.1015 92.1195 18.9962 91.8652 18.9962 91.6C18.9962 91.3348 19.1015 91.0804 19.289 90.8929C19.4766 90.7053 19.7309 90.6 19.9962 90.6H52.1461C52.4114 90.6 52.6657 90.7053 52.8533 90.8929C53.0408 91.0804 53.1461 91.3348 53.1461 91.6C53.1461 91.8652 53.0408 92.1195 52.8533 92.3071C52.6657 92.4946 52.4114 92.6 52.1461 92.6Z" fill="#DFEAEF"/>
<path d="M47.8762 73.78C47.7317 73.78 47.589 73.7487 47.4578 73.6883C47.3266 73.6279 47.21 73.5398 47.1161 73.43L34.5961 59.02L21.3562 72.86C21.1718 73.051 20.9192 73.1609 20.6538 73.1656C20.3885 73.1702 20.1321 73.0693 19.9412 72.885C19.7502 72.7007 19.6403 72.448 19.6356 72.1827C19.6309 71.9173 19.7318 71.661 19.9161 71.47L33.9161 56.84C34.0098 56.7385 34.1234 56.6575 34.2499 56.6021C34.3764 56.5467 34.513 56.5181 34.6511 56.5181C34.7893 56.5181 34.9259 56.5467 35.0524 56.6021C35.1789 56.6575 35.2925 56.7385 35.3862 56.84L48.6262 72.08C48.7998 72.2803 48.8867 72.5413 48.868 72.8057C48.8492 73.0701 48.7263 73.3162 48.5261 73.49C48.3524 73.6631 48.1211 73.7663 47.8762 73.78Z" fill="#093F68"/>
<path d="M61.4661 71.06C61.2312 71.0577 61.0047 70.9727 60.8261 70.82L52.1961 63.5L45.5361 70C45.3452 70.1857 45.0883 70.2879 44.822 70.2841C44.5557 70.2804 44.3018 70.171 44.1161 69.98C43.9305 69.7891 43.8283 69.5322 43.832 69.2659C43.8358 68.9996 43.9452 68.7457 44.1361 68.56L51.4461 61.43C51.6305 61.2614 51.8713 61.1678 52.1211 61.1678C52.371 61.1678 52.6118 61.2614 52.7961 61.43L62.1161 69.33C62.2754 69.462 62.3898 69.64 62.4437 69.8396C62.4975 70.0393 62.4882 70.2507 62.4169 70.4448C62.3456 70.6389 62.2159 70.8062 62.0456 70.9235C61.8754 71.0408 61.6729 71.1025 61.4661 71.1V71.06Z" fill="#093F68"/>
<path d="M0.956147 131.62C0.7283 131.61 0.510855 131.522 0.339882 131.371C0.168909 131.22 0.0546886 131.015 0.0161518 130.79C-0.00804332 130.657 -0.00502932 130.521 0.0250172 130.389C0.0550636 130.257 0.111517 130.133 0.190964 130.023C0.270411 129.914 0.371203 129.822 0.487252 129.752C0.6033 129.683 0.732197 129.638 0.86615 129.62C1.86615 129.42 166.386 129.56 216.766 129.62C217.031 129.62 217.286 129.725 217.473 129.913C217.661 130.1 217.766 130.355 217.766 130.62C217.766 130.885 217.661 131.14 217.473 131.327C217.286 131.515 217.031 131.62 216.766 131.62C214.636 131.62 4.06615 131.44 1.13615 131.62H0.956147Z" fill="#093F68"/>
<path d="M214.036 79.68H184.566C183.064 79.68 181.846 80.8978 181.846 82.4V103.63C181.846 105.132 183.064 106.35 184.566 106.35H214.036C215.538 106.35 216.756 105.132 216.756 103.63V82.4C216.756 80.8978 215.538 79.68 214.036 79.68Z" fill="white"/>
<path d="M214.046 107.35H184.566C183.58 107.347 182.636 106.955 181.939 106.258C181.242 105.56 180.849 104.616 180.846 103.63V82.4C180.849 81.4142 181.242 80.4695 181.939 79.7725C182.636 79.0754 183.58 78.6826 184.566 78.68H214.046C215.032 78.6826 215.977 79.0754 216.674 79.7725C217.371 80.4695 217.764 81.4142 217.766 82.4V103.63C217.764 104.616 217.371 105.56 216.674 106.258C215.977 106.955 215.032 107.347 214.046 107.35V107.35ZM184.566 80.68C184.34 80.68 184.117 80.7245 183.908 80.8109C183.699 80.8974 183.51 81.0241 183.35 81.1838C183.19 81.3435 183.064 81.5331 182.977 81.7418C182.891 81.9505 182.846 82.1741 182.846 82.4V103.63C182.846 103.856 182.891 104.08 182.977 104.288C183.064 104.497 183.19 104.687 183.35 104.846C183.51 105.006 183.699 105.133 183.908 105.219C184.117 105.306 184.34 105.35 184.566 105.35H214.046C214.502 105.35 214.94 105.169 215.262 104.846C215.585 104.524 215.766 104.086 215.766 103.63V82.4C215.766 81.9438 215.585 81.5063 215.262 81.1838C214.94 80.8612 214.502 80.68 214.046 80.68H184.566Z" fill="#093F68"/>
<path d="M210.696 87.78H189.296C189.031 87.78 188.777 87.6747 188.589 87.4871C188.401 87.2996 188.296 87.0452 188.296 86.78C188.296 86.5148 188.401 86.2605 188.589 86.0729C188.777 85.8854 189.031 85.78 189.296 85.78H210.696C210.961 85.78 211.216 85.8854 211.403 86.0729C211.591 86.2605 211.696 86.5148 211.696 86.78C211.696 87.0452 211.591 87.2996 211.403 87.4871C211.216 87.6747 210.961 87.78 210.696 87.78Z" fill="#DFEAEF"/>
<path d="M210.696 94.01H189.296C189.031 94.01 188.777 93.9047 188.589 93.7171C188.401 93.5296 188.296 93.2752 188.296 93.01C188.296 92.7448 188.401 92.4904 188.589 92.3029C188.777 92.1154 189.031 92.01 189.296 92.01H210.696C210.961 92.01 211.216 92.1154 211.403 92.3029C211.591 92.4904 211.696 92.7448 211.696 93.01C211.696 93.2752 211.591 93.5296 211.403 93.7171C211.216 93.9047 210.961 94.01 210.696 94.01Z" fill="#DFEAEF"/>
<path d="M204.836 100.25H189.296C189.031 100.25 188.777 100.145 188.589 99.9571C188.401 99.7696 188.296 99.5152 188.296 99.25C188.296 98.9848 188.401 98.7304 188.589 98.5429C188.777 98.3554 189.031 98.25 189.296 98.25H204.836C205.101 98.25 205.356 98.3554 205.543 98.5429C205.731 98.7304 205.836 98.9848 205.836 99.25C205.836 99.5152 205.731 99.7696 205.543 99.9571C205.356 100.145 205.101 100.25 204.836 100.25Z" fill="#DFEAEF"/>
<path d="M221.666 101.59L209.456 113.8L202.526 94.66L221.666 101.59Z" fill="white"/>
<path d="M209.456 114.8H209.236C209.073 114.764 208.922 114.687 208.796 114.577C208.67 114.467 208.574 114.327 208.516 114.17L201.586 95.03C201.522 94.8514 201.509 94.6582 201.551 94.4729C201.592 94.2875 201.685 94.1178 201.82 93.9836C201.954 93.8493 202.124 93.756 202.309 93.7147C202.494 93.6733 202.688 93.6856 202.866 93.75L222.006 100.68C222.149 100.743 222.275 100.839 222.375 100.96C222.474 101.081 222.543 101.224 222.577 101.377C222.611 101.529 222.609 101.688 222.571 101.84C222.532 101.991 222.459 102.132 222.356 102.25L210.146 114.46C210.059 114.559 209.954 114.641 209.835 114.699C209.717 114.757 209.588 114.792 209.456 114.8ZM204.196 96.33L209.866 111.98L219.866 101.98L204.196 96.33Z" fill="#093F68"/>
<path d="M219.676 112.8C219.545 112.801 219.414 112.776 219.292 112.726C219.17 112.676 219.06 112.603 218.966 112.51L214.856 108.4C214.762 108.307 214.688 108.196 214.637 108.075C214.586 107.953 214.56 107.822 214.56 107.69C214.56 107.558 214.586 107.427 214.637 107.305C214.688 107.184 214.762 107.073 214.856 106.98C215.043 106.794 215.297 106.689 215.561 106.689C215.825 106.689 216.079 106.794 216.266 106.98L220.376 111.1C220.562 111.287 220.667 111.541 220.667 111.805C220.667 112.069 220.562 112.323 220.376 112.51C220.19 112.695 219.938 112.799 219.676 112.8V112.8Z" fill="#093F68"/>
</svg>
