<svg width="214" height="136" viewBox="0 0 214 136" fill="none" xmlns="http://www.w3.org/2000/svg">
<g id="database">
<g id="Group 1">
<path id="Vector" d="M169.73 29.05H52.47V134.09H169.73V29.05Z" fill="#093F68"/>
<path id="Vector_2" d="M169.73 135.09H52.47C52.2048 135.09 51.9504 134.985 51.7629 134.797C51.5754 134.61 51.47 134.355 51.47 134.09V29.09C51.47 28.8247 51.5754 28.5704 51.7629 28.3829C51.9504 28.1953 52.2048 28.09 52.47 28.09H169.73C169.995 28.09 170.25 28.1953 170.437 28.3829C170.625 28.5704 170.73 28.8247 170.73 29.09V134.09C170.73 134.355 170.625 134.61 170.437 134.797C170.25 134.985 169.995 135.09 169.73 135.09ZM53.47 133.09H168.73V30.09H53.47V133.09Z" fill="#093F68"/>
<path id="Vector_3" d="M169.2 88.72H53C50.2165 88.72 47.96 90.9764 47.96 93.76V110.58C47.96 113.363 50.2165 115.62 53 115.62H169.2C171.983 115.62 174.24 113.363 174.24 110.58V93.76C174.24 90.9764 171.983 88.72 169.2 88.72Z" fill="#68E1FD"/>
<path id="Vector_4" d="M169.21 116.62H53C51.4087 116.62 49.8826 115.988 48.7574 114.863C47.6322 113.737 47 112.211 47 110.62V93.75C47 92.1587 47.6322 90.6326 48.7574 89.5074C49.8826 88.3821 51.4087 87.75 53 87.75H169.21C170.801 87.75 172.327 88.3821 173.453 89.5074C174.578 90.6326 175.21 92.1587 175.21 93.75V110.58C175.215 111.371 175.064 112.156 174.765 112.888C174.466 113.621 174.025 114.287 173.467 114.849C172.909 115.41 172.246 115.855 171.515 116.159C170.785 116.464 170.001 116.62 169.21 116.62V116.62ZM53.01 89.72C51.9491 89.72 50.9317 90.1414 50.1816 90.8916C49.4314 91.6417 49.01 92.6591 49.01 93.72V110.55C49.01 111.611 49.4314 112.628 50.1816 113.378C50.9317 114.129 51.9491 114.55 53.01 114.55H169.21C170.271 114.55 171.288 114.129 172.038 113.378C172.789 112.628 173.21 111.611 173.21 110.55V93.75C173.21 92.6891 172.789 91.6717 172.038 90.9216C171.288 90.1714 170.271 89.75 169.21 89.75L53.01 89.72Z" fill="#093F68"/>
<path id="Vector_5" d="M156.19 107C158.858 107 161.02 104.838 161.02 102.17C161.02 99.5024 158.858 97.34 156.19 97.34C153.522 97.34 151.36 99.5024 151.36 102.17C151.36 104.838 153.522 107 156.19 107Z" fill="#F56132"/>
<path id="Vector_6" d="M156.21 108C155.054 108.002 153.924 107.661 152.962 107.02C152 106.379 151.25 105.467 150.806 104.399C150.363 103.332 150.247 102.157 150.472 101.023C150.697 99.8894 151.253 98.8478 152.071 98.0305C152.888 97.2132 153.929 96.6568 155.063 96.4317C156.197 96.2067 157.372 96.3232 158.44 96.7665C159.507 97.2097 160.419 97.9598 161.06 98.9217C161.701 99.8836 162.042 101.014 162.04 102.17C162.037 103.715 161.422 105.197 160.33 106.29C159.237 107.382 157.755 107.997 156.21 108V108ZM156.21 98.33C155.45 98.328 154.707 98.5516 154.074 98.9723C153.441 99.393 152.947 99.9921 152.655 100.694C152.363 101.395 152.286 102.167 152.433 102.913C152.58 103.659 152.945 104.344 153.481 104.882C154.018 105.42 154.702 105.786 155.447 105.935C156.192 106.084 156.965 106.009 157.667 105.719C158.369 105.428 158.97 104.936 159.392 104.304C159.815 103.673 160.04 102.93 160.04 102.17C160.04 101.153 159.637 100.178 158.919 99.4582C158.201 98.7384 157.227 98.3327 156.21 98.33V98.33Z" fill="#093F68"/>
<path id="Vector_7" d="M169.2 59.47H53C50.2165 59.47 47.96 61.7265 47.96 64.51V81.33C47.96 84.1135 50.2165 86.37 53 86.37H169.2C171.983 86.37 174.24 84.1135 174.24 81.33V64.51C174.24 61.7265 171.983 59.47 169.2 59.47Z" fill="#68E1FD"/>
<path id="Vector_8" d="M169.21 87.37H53C51.4087 87.37 49.8826 86.7379 48.7574 85.6126C47.6322 84.4874 47 82.9613 47 81.37V64.51C47 62.9187 47.6322 61.3926 48.7574 60.2674C49.8826 59.1421 51.4087 58.51 53 58.51H169.21C170.801 58.51 172.327 59.1421 173.453 60.2674C174.578 61.3926 175.21 62.9187 175.21 64.51V81.34C175.214 82.1305 175.062 82.9139 174.762 83.6453C174.462 84.3767 174.021 85.0417 173.463 85.6021C172.906 86.1624 172.243 86.607 171.513 86.9104C170.783 87.2138 170 87.37 169.21 87.37V87.37ZM53.01 60.47C51.9491 60.47 50.9317 60.8914 50.1816 61.6416C49.4314 62.3917 49.01 63.4091 49.01 64.47V81.3C49.01 82.3609 49.4314 83.3783 50.1816 84.1284C50.9317 84.8786 51.9491 85.3 53.01 85.3H169.21C170.271 85.3 171.288 84.8786 172.038 84.1284C172.789 83.3783 173.21 82.3609 173.21 81.3V64.51C173.21 63.4491 172.789 62.4317 172.038 61.6816C171.288 60.9314 170.271 60.51 169.21 60.51L53.01 60.47Z" fill="#093F68"/>
<path id="Vector_9" d="M156.19 77.75C158.858 77.75 161.02 75.5875 161.02 72.92C161.02 70.2524 158.858 68.09 156.19 68.09C153.522 68.09 151.36 70.2524 151.36 72.92C151.36 75.5875 153.522 77.75 156.19 77.75Z" fill="#FFBC0E"/>
<path id="Vector_10" d="M156.21 78.76C155.055 78.762 153.924 78.4212 152.963 77.7807C152.001 77.1402 151.251 76.2288 150.807 75.1618C150.364 74.0949 150.247 72.9203 150.471 71.7868C150.695 70.6533 151.251 69.6118 152.067 68.7941C152.883 67.9763 153.924 67.4191 155.057 67.193C156.19 66.9668 157.365 67.0819 158.433 67.5236C159.5 67.9653 160.413 68.7139 161.055 69.6745C161.697 70.635 162.04 71.7645 162.04 72.92C162.037 74.4663 161.423 75.9487 160.33 77.0431C159.238 78.1374 157.756 78.7547 156.21 78.76V78.76ZM156.21 69.09C155.45 69.088 154.706 69.3118 154.073 69.733C153.44 70.1542 152.946 70.7538 152.654 71.4559C152.362 72.158 152.285 72.9309 152.433 73.6767C152.581 74.4225 152.947 75.1077 153.485 75.6453C154.022 76.1829 154.707 76.5489 155.453 76.6967C156.199 76.8445 156.972 76.7677 157.674 76.4758C158.376 76.1839 158.976 75.6902 159.397 75.0572C159.818 74.4241 160.042 73.6803 160.04 72.92C160.037 71.905 159.633 70.9324 158.915 70.2147C158.198 69.497 157.225 69.0926 156.21 69.09V69.09Z" fill="#093F68"/>
<path id="Vector_11" d="M169.2 30.22H53C50.2165 30.22 47.96 32.4765 47.96 35.26V52.08C47.96 54.8635 50.2165 57.12 53 57.12H169.2C171.983 57.12 174.24 54.8635 174.24 52.08V35.26C174.24 32.4765 171.983 30.22 169.2 30.22Z" fill="#68E1FD"/>
<path id="Vector_12" d="M169.21 58.12H53C51.4087 58.12 49.8826 57.4879 48.7574 56.3626C47.6322 55.2374 47 53.7113 47 52.12V35.26C47 33.6687 47.6322 32.1426 48.7574 31.0174C49.8826 29.8921 51.4087 29.26 53 29.26H169.21C170.801 29.26 172.327 29.8921 173.453 31.0174C174.578 32.1426 175.21 33.6687 175.21 35.26V52.09C175.214 52.8805 175.062 53.6639 174.762 54.3953C174.462 55.1267 174.021 55.7917 173.463 56.3521C172.906 56.9124 172.243 57.357 171.513 57.6604C170.783 57.9638 170 58.12 169.21 58.12V58.12ZM53.01 31.22C51.9491 31.22 50.9317 31.6414 50.1816 32.3916C49.4314 33.1417 49.01 34.1591 49.01 35.22V52.05C49.01 53.1109 49.4314 54.1283 50.1816 54.8784C50.9317 55.6286 51.9491 56.05 53.01 56.05H169.21C170.271 56.05 171.288 55.6286 172.038 54.8784C172.789 54.1283 173.21 53.1109 173.21 52.05V35.26C173.21 34.1991 172.789 33.1817 172.038 32.4316C171.288 31.6814 170.271 31.26 169.21 31.26L53.01 31.22Z" fill="#093F68"/>
<path id="Vector_13" d="M156.19 48.5C158.858 48.5 161.02 46.3375 161.02 43.67C161.02 41.0024 158.858 38.84 156.19 38.84C153.522 38.84 151.36 41.0024 151.36 43.67C151.36 46.3375 153.522 48.5 156.19 48.5Z" fill="#F56132"/>
<path id="Vector_14" d="M156.21 49.51C155.055 49.512 153.924 49.1712 152.963 48.5307C152.001 47.8902 151.251 46.9788 150.807 45.9118C150.364 44.8449 150.247 43.6703 150.471 42.5368C150.695 41.4033 151.251 40.3618 152.067 39.5441C152.883 38.7263 153.924 38.1691 155.057 37.943C156.19 37.7168 157.365 37.8319 158.433 38.2736C159.5 38.7153 160.413 39.4638 161.055 40.4244C161.697 41.385 162.04 42.5145 162.04 43.67C162.037 45.2163 161.423 46.6987 160.33 47.7931C159.238 48.8874 157.756 49.5047 156.21 49.51V49.51ZM156.21 39.84C155.45 39.838 154.706 40.0618 154.073 40.483C153.44 40.9042 152.946 41.5038 152.654 42.2059C152.362 42.908 152.285 43.6809 152.433 44.4267C152.581 45.1725 152.947 45.8577 153.485 46.3953C154.022 46.9329 154.707 47.2989 155.453 47.4467C156.199 47.5945 156.972 47.5177 157.674 47.2258C158.376 46.9339 158.976 46.4402 159.397 45.8072C159.818 45.1741 160.042 44.4303 160.04 43.67C160.037 42.655 159.633 41.6824 158.915 40.9647C158.198 40.247 157.225 39.8426 156.21 39.84V39.84Z" fill="#093F68"/>
<path id="Vector_15" d="M169.2 0.969971H53C50.2165 0.969971 47.96 3.22646 47.96 6.00997V22.83C47.96 25.6135 50.2165 27.87 53 27.87H169.2C171.983 27.87 174.24 25.6135 174.24 22.83V6.00997C174.24 3.22646 171.983 0.969971 169.2 0.969971Z" fill="#68E1FD"/>
<path id="Vector_16" d="M169.21 28.88H53C51.4087 28.88 49.8826 28.2479 48.7574 27.1226C47.6322 25.9974 47 24.4713 47 22.88V6C47 4.4087 47.6322 2.88258 48.7574 1.75736C49.8826 0.63214 51.4087 0 53 0H169.21C170.801 0 172.327 0.63214 173.453 1.75736C174.578 2.88258 175.21 4.4087 175.21 6V22.84C175.215 23.6313 175.064 24.4158 174.765 25.1484C174.466 25.881 174.025 26.5471 173.467 27.1085C172.909 27.6699 172.246 28.1155 171.515 28.4195C170.785 28.7235 170.001 28.88 169.21 28.88V28.88ZM53 2C51.9391 2 50.9217 2.42143 50.1716 3.17157C49.4214 3.92172 49 4.93913 49 6V22.84C49 23.9009 49.4214 24.9183 50.1716 25.6684C50.9217 26.4186 51.9391 26.84 53 26.84H169.21C170.271 26.84 171.288 26.4186 172.038 25.6684C172.789 24.9183 173.21 23.9009 173.21 22.84V6C173.21 4.93913 172.789 3.92172 172.038 3.17157C171.288 2.42143 170.271 2 169.21 2H53Z" fill="#093F68"/>
<path id="Vector_17" d="M156.19 19.26C158.858 19.26 161.02 17.0975 161.02 14.43C161.02 11.7624 158.858 9.59998 156.19 9.59998C153.522 9.59998 151.36 11.7624 151.36 14.43C151.36 17.0975 153.522 19.26 156.19 19.26Z" fill="#FFBC0E"/>
<path id="Vector_18" d="M156.21 20.26C155.054 20.262 153.924 19.9209 152.962 19.28C152 18.639 151.25 17.727 150.806 16.6595C150.363 15.592 150.247 14.4169 150.472 13.2831C150.697 12.1494 151.253 11.1079 152.071 10.2905C152.888 9.47318 153.929 8.91677 155.063 8.69175C156.197 8.46673 157.372 8.58322 158.44 9.02648C159.507 9.46973 160.419 10.2198 161.06 11.1817C161.701 12.1436 162.042 13.2741 162.04 14.43C162.037 15.9754 161.422 17.4568 160.33 18.5495C159.237 19.6423 157.755 20.2574 156.21 20.26V20.26ZM156.21 10.59C155.45 10.588 154.707 10.8116 154.074 11.2323C153.441 11.653 152.947 12.2521 152.655 12.9536C152.363 13.6551 152.286 14.4275 152.433 15.173C152.58 15.9186 152.945 16.6037 153.481 17.1417C154.018 17.6798 154.702 18.0465 155.447 18.1955C156.192 18.3445 156.965 18.269 157.667 17.9787C158.369 17.6883 158.97 17.1961 159.392 16.5644C159.815 15.9327 160.04 15.1899 160.04 14.43C160.04 13.4133 159.637 12.4381 158.919 11.7183C158.201 10.9984 157.227 10.5927 156.21 10.59V10.59Z" fill="#093F68"/>
<path id="Vector_19" d="M117.99 98.35H61.41C60.2392 98.35 59.29 99.2991 59.29 100.47V103.86C59.29 105.031 60.2392 105.98 61.41 105.98H117.99C119.161 105.98 120.11 105.031 120.11 103.86V100.47C120.11 99.2991 119.161 98.35 117.99 98.35Z" fill="#093F68"/>
<path id="Vector_20" d="M117.99 107H61.41C60.5843 107 59.7922 106.673 59.2074 106.09C58.6225 105.507 58.2927 104.716 58.29 103.89V100.49C58.29 99.6625 58.6187 98.8689 59.2038 98.2838C59.7889 97.6987 60.5825 97.37 61.41 97.37H117.99C118.817 97.37 119.611 97.6987 120.196 98.2838C120.781 98.8689 121.11 99.6625 121.11 100.49V103.89C121.107 104.716 120.777 105.507 120.193 106.09C119.608 106.673 118.816 107 117.99 107V107ZM61.41 99.37C61.113 99.37 60.8281 99.488 60.618 99.698C60.408 99.9081 60.29 100.193 60.29 100.49V103.89C60.2926 104.185 60.4118 104.468 60.6216 104.676C60.8313 104.883 61.1147 105 61.41 105H117.99C118.285 105 118.569 104.883 118.778 104.676C118.988 104.468 119.107 104.185 119.11 103.89V100.49C119.11 100.193 118.992 99.9081 118.782 99.698C118.572 99.488 118.287 99.37 117.99 99.37H61.41Z" fill="#093F68"/>
<path id="Vector_21" d="M117.99 69.11H61.41C60.2392 69.11 59.29 70.0591 59.29 71.23V74.62C59.29 75.7908 60.2392 76.74 61.41 76.74H117.99C119.161 76.74 120.11 75.7908 120.11 74.62V71.23C120.11 70.0591 119.161 69.11 117.99 69.11Z" fill="#093F68"/>
<path id="Vector_22" d="M117.99 77.74H61.41C60.5825 77.74 59.7889 77.4113 59.2038 76.8262C58.6187 76.241 58.29 75.4475 58.29 74.62V71.22C58.2927 70.3942 58.6225 69.6032 59.2074 69.0203C59.7922 68.4373 60.5843 68.11 61.41 68.11H117.99C118.816 68.11 119.608 68.4373 120.193 69.0203C120.777 69.6032 121.107 70.3942 121.11 71.22V74.62C121.11 75.4475 120.781 76.241 120.196 76.8262C119.611 77.4113 118.817 77.74 117.99 77.74V77.74ZM61.41 70.11C61.1147 70.11 60.8313 70.2266 60.6216 70.4345C60.4118 70.6424 60.2926 70.9247 60.29 71.22V74.62C60.29 74.917 60.408 75.2019 60.618 75.4119C60.8281 75.622 61.113 75.74 61.41 75.74H117.99C118.287 75.74 118.572 75.622 118.782 75.4119C118.992 75.2019 119.11 74.917 119.11 74.62V71.22C119.107 70.9247 118.988 70.6424 118.778 70.4345C118.569 70.2266 118.285 70.11 117.99 70.11H61.41Z" fill="#093F68"/>
<path id="Vector_23" d="M117.99 39.86H61.41C60.2392 39.86 59.29 40.8091 59.29 41.98V45.37C59.29 46.5408 60.2392 47.49 61.41 47.49H117.99C119.161 47.49 120.11 46.5408 120.11 45.37V41.98C120.11 40.8091 119.161 39.86 117.99 39.86Z" fill="#093F68"/>
<path id="Vector_24" d="M117.99 48.49H61.41C60.5825 48.49 59.7889 48.1613 59.2038 47.5762C58.6187 46.9911 58.29 46.1975 58.29 45.37V42C58.29 41.1725 58.6187 40.3789 59.2038 39.7938C59.7889 39.2087 60.5825 38.88 61.41 38.88H117.99C118.817 38.88 119.611 39.2087 120.196 39.7938C120.781 40.3789 121.11 41.1725 121.11 42V45.39C121.105 46.214 120.774 47.0025 120.189 47.5833C119.605 48.1641 118.814 48.49 117.99 48.49V48.49ZM61.41 40.86C61.113 40.86 60.8281 40.978 60.618 41.188C60.408 41.3981 60.29 41.683 60.29 41.98V45.37C60.29 45.6671 60.408 45.9519 60.618 46.162C60.8281 46.372 61.113 46.49 61.41 46.49H117.99C118.287 46.49 118.572 46.372 118.782 46.162C118.992 45.9519 119.11 45.6671 119.11 45.37V42C119.11 41.703 118.992 41.4181 118.782 41.208C118.572 40.998 118.287 40.88 117.99 40.88L61.41 40.86Z" fill="#093F68"/>
<path id="Vector_25" d="M117.99 10.61H61.41C60.2392 10.61 59.29 11.5591 59.29 12.73V16.12C59.29 17.2908 60.2392 18.24 61.41 18.24H117.99C119.161 18.24 120.11 17.2908 120.11 16.12V12.73C120.11 11.5591 119.161 10.61 117.99 10.61Z" fill="#093F68"/>
<path id="Vector_26" d="M117.99 19.24H61.41C60.5825 19.24 59.7889 18.9113 59.2038 18.3262C58.6187 17.741 58.29 16.9475 58.29 16.12V12.73C58.29 11.9025 58.6187 11.1089 59.2038 10.5238C59.7889 9.9387 60.5825 9.60999 61.41 9.60999H117.99C118.817 9.60999 119.611 9.9387 120.196 10.5238C120.781 11.1089 121.11 11.9025 121.11 12.73V16.12C121.11 16.9475 120.781 17.741 120.196 18.3262C119.611 18.9113 118.817 19.24 117.99 19.24V19.24ZM61.41 11.61C61.113 11.61 60.8281 11.728 60.618 11.938C60.408 12.1481 60.29 12.4329 60.29 12.73V16.12C60.29 16.417 60.408 16.7019 60.618 16.9119C60.8281 17.122 61.113 17.24 61.41 17.24H117.99C118.287 17.24 118.572 17.122 118.782 16.9119C118.992 16.7019 119.11 16.417 119.11 16.12V12.73C119.11 12.4329 118.992 12.1481 118.782 11.938C118.572 11.728 118.287 11.61 117.99 11.61H61.41Z" fill="#093F68"/>
<path id="Vector_27" d="M9.26001 61.54C8.99479 61.54 8.74044 61.4346 8.5529 61.2471C8.36537 61.0596 8.26001 60.8052 8.26001 60.54V55C8.26001 54.7348 8.36537 54.4804 8.5529 54.2929C8.74044 54.1054 8.99479 54 9.26001 54C9.52523 54 9.77958 54.1054 9.96712 54.2929C10.1547 54.4804 10.26 54.7348 10.26 55V60.51C10.264 60.6438 10.2411 60.7771 10.1927 60.9019C10.1442 61.0267 10.0712 61.1405 9.97794 61.2366C9.88467 61.3326 9.77307 61.409 9.64975 61.4611C9.52643 61.5132 9.39389 61.5401 9.26001 61.54Z" fill="#DFEAEF"/>
<path id="Vector_28" d="M9.26001 72.54C8.99479 72.54 8.74044 72.4346 8.5529 72.2471C8.36537 72.0596 8.26001 71.8052 8.26001 71.54V66C8.26001 65.7348 8.36537 65.4804 8.5529 65.2929C8.74044 65.1054 8.99479 65 9.26001 65C9.52523 65 9.77958 65.1054 9.96712 65.2929C10.1547 65.4804 10.26 65.7348 10.26 66V71.5C10.2654 71.6346 10.2435 71.769 10.1957 71.895C10.1478 72.021 10.075 72.136 9.98164 72.2331C9.88824 72.3302 9.77617 72.4075 9.65216 72.4602C9.52815 72.513 9.39477 72.5401 9.26001 72.54Z" fill="#DFEAEF"/>
<path id="Vector_29" d="M17.51 64.29H12.01C11.7448 64.29 11.4904 64.1846 11.3029 63.9971C11.1154 63.8095 11.01 63.5552 11.01 63.29C11.01 63.0248 11.1154 62.7704 11.3029 62.5829C11.4904 62.3953 11.7448 62.29 12.01 62.29H17.51C17.7752 62.29 18.0296 62.3953 18.2171 62.5829C18.4047 62.7704 18.51 63.0248 18.51 63.29C18.51 63.5552 18.4047 63.8095 18.2171 63.9971C18.0296 64.1846 17.7752 64.29 17.51 64.29Z" fill="#DFEAEF"/>
<path id="Vector_30" d="M6.5 64.29H1C0.734784 64.29 0.480429 64.1846 0.292892 63.9971C0.105356 63.8095 0 63.5552 0 63.29C0 63.0248 0.105356 62.7704 0.292892 62.5829C0.480429 62.3953 0.734784 62.29 1 62.29H6.5C6.76522 62.29 7.01957 62.3953 7.20711 62.5829C7.39464 62.7704 7.5 63.0248 7.5 63.29C7.5 63.5552 7.39464 63.8095 7.20711 63.9971C7.01957 64.1846 6.76522 64.29 6.5 64.29Z" fill="#DFEAEF"/>
<path id="Vector_31" d="M196.83 76C196.565 76 196.31 75.8946 196.123 75.7071C195.935 75.5196 195.83 75.2652 195.83 75V69.5C195.83 69.2348 195.935 68.9804 196.123 68.7929C196.31 68.6054 196.565 68.5 196.83 68.5C197.095 68.5 197.35 68.6054 197.537 68.7929C197.725 68.9804 197.83 69.2348 197.83 69.5V75C197.83 75.2652 197.725 75.5196 197.537 75.7071C197.35 75.8946 197.095 76 196.83 76Z" fill="#DFEAEF"/>
<path id="Vector_32" d="M196.83 87C196.565 87 196.31 86.8946 196.123 86.7071C195.935 86.5196 195.83 86.2652 195.83 86V80.5C195.83 80.2348 195.935 79.9804 196.123 79.7929C196.31 79.6054 196.565 79.5 196.83 79.5C197.095 79.5 197.35 79.6054 197.537 79.7929C197.725 79.9804 197.83 80.2348 197.83 80.5V86C197.83 86.2652 197.725 86.5196 197.537 86.7071C197.35 86.8946 197.095 87 196.83 87Z" fill="#DFEAEF"/>
<path id="Vector_33" d="M205.09 78.76H199.59C199.325 78.76 199.07 78.6547 198.883 78.4671C198.695 78.2796 198.59 78.0252 198.59 77.76C198.59 77.4948 198.695 77.2404 198.883 77.0529C199.07 76.8654 199.325 76.76 199.59 76.76H205.09C205.355 76.76 205.61 76.8654 205.797 77.0529C205.985 77.2404 206.09 77.4948 206.09 77.76C206.09 78.0252 205.985 78.2796 205.797 78.4671C205.61 78.6547 205.355 78.76 205.09 78.76Z" fill="#DFEAEF"/>
<path id="Vector_34" d="M194.08 78.76H188.58C188.315 78.76 188.06 78.6547 187.873 78.4671C187.685 78.2796 187.58 78.0252 187.58 77.76C187.58 77.4948 187.685 77.2404 187.873 77.0529C188.06 76.8654 188.315 76.76 188.58 76.76H194.08C194.345 76.76 194.6 76.8654 194.787 77.0529C194.975 77.2404 195.08 77.4948 195.08 77.76C195.08 78.0252 194.975 78.2796 194.787 78.4671C194.6 78.6547 194.345 78.76 194.08 78.76Z" fill="#DFEAEF"/>
<path id="Vector_35" d="M206.21 47.74C205.945 47.74 205.69 47.6346 205.503 47.4471C205.315 47.2595 205.21 47.0052 205.21 46.74V33.6C205.21 33.3348 205.315 33.0804 205.503 32.8929C205.69 32.7053 205.945 32.6 206.21 32.6C206.475 32.6 206.73 32.7053 206.917 32.8929C207.105 33.0804 207.21 33.3348 207.21 33.6V46.74C207.21 47.0052 207.105 47.2595 206.917 47.4471C206.73 47.6346 206.475 47.74 206.21 47.74Z" fill="#DFEAEF"/>
<path id="Vector_36" d="M212.73 41.17H199.59C199.325 41.17 199.07 41.0646 198.883 40.8771C198.695 40.6896 198.59 40.4352 198.59 40.17C198.59 39.9048 198.695 39.6504 198.883 39.4629C199.07 39.2753 199.325 39.17 199.59 39.17H212.73C212.995 39.17 213.25 39.2753 213.437 39.4629C213.625 39.6504 213.73 39.9048 213.73 40.17C213.73 40.4352 213.625 40.6896 213.437 40.8771C213.25 41.0646 212.995 41.17 212.73 41.17Z" fill="#DFEAEF"/>
<path id="Vector_37" d="M29.52 20.56C29.2548 20.56 29.0004 20.4546 28.8129 20.2671C28.6253 20.0795 28.52 19.8252 28.52 19.56V9.28998C28.52 9.02476 28.6253 8.77041 28.8129 8.58287C29.0004 8.39533 29.2548 8.28998 29.52 8.28998C29.7852 8.28998 30.0396 8.39533 30.2271 8.58287C30.4146 8.77041 30.52 9.02476 30.52 9.28998V19.56C30.52 19.8252 30.4146 20.0795 30.2271 20.2671C30.0396 20.4546 29.7852 20.56 29.52 20.56Z" fill="#DFEAEF"/>
<path id="Vector_38" d="M34.66 15.43H24.39C24.1248 15.43 23.8704 15.3246 23.6829 15.1371C23.4954 14.9496 23.39 14.6952 23.39 14.43C23.39 14.1648 23.4954 13.9104 23.6829 13.7229C23.8704 13.5353 24.1248 13.43 24.39 13.43H34.66C34.9252 13.43 35.1796 13.5353 35.3671 13.7229C35.5547 13.9104 35.66 14.1648 35.66 14.43C35.66 14.6952 35.5547 14.9496 35.3671 15.1371C35.1796 15.3246 34.9252 15.43 34.66 15.43V15.43Z" fill="#DFEAEF"/>
<path id="Vector_39" d="M34.66 100C34.3948 100 34.1404 99.8946 33.9529 99.7071C33.7654 99.5195 33.66 99.2652 33.66 99V88.72C33.66 88.4548 33.7654 88.2004 33.9529 88.0129C34.1404 87.8253 34.3948 87.72 34.66 87.72C34.9252 87.72 35.1796 87.8253 35.3671 88.0129C35.5546 88.2004 35.66 88.4548 35.66 88.72V99C35.66 99.2652 35.5546 99.5195 35.3671 99.7071C35.1796 99.8946 34.9252 100 34.66 100Z" fill="#DFEAEF"/>
<path id="Vector_40" d="M39.79 94.85H29.52C29.2548 94.85 29.0004 94.7446 28.8129 94.5571C28.6253 94.3695 28.52 94.1152 28.52 93.85C28.52 93.5848 28.6253 93.3304 28.8129 93.1429C29.0004 92.9553 29.2548 92.85 29.52 92.85H39.79C40.0552 92.85 40.3096 92.9553 40.4971 93.1429C40.6846 93.3304 40.79 93.5848 40.79 93.85C40.79 94.1152 40.6846 94.3695 40.4971 94.5571C40.3096 94.7446 40.0552 94.85 39.79 94.85Z" fill="#DFEAEF"/>
</g>
</g>
</svg>
